<?xml version="1.0" encoding="UTF-8"?>
<svg id="Layer_1" data-name="Layer 1" xmlns="http://www.w3.org/2000/svg" viewBox="0 0 422.73 70.84">
  <defs>
    <style>
      .cls-1 {
        fill: #ff59b7;
      }
    </style>
  </defs>
  <g id="Arrow-White-Center">
    <g id="Logo">
      <g id="screencastify-logo">
        <path class="cls-1" d="m84.56,38.37l-18.14,10.45-31.48,18.11c-1.94,1.08-4.5-.29-4.5-2.52v-14.1H11.21c-1.77,0-3.6-1.2-3.6-2.97v-23.01c0-1.77,1.83-3.21,3.6-3.21h19.22v29.18h20.93c1.77,0,3.02-1.19,3.02-2.97v-5.48l11.98,6.85v-25.92l-11.98,6.86v-5.32c0-1.77-1.25-3.2-3.02-3.2h-20.93V7.08c0-2.23,2.56-3.65,4.5-2.52l31.48,18.16,18.14,10.45c1.94,1.08,1.94,3.88,0,5.19Z"/>
      </g>
    </g>
  </g>
  <g>
    <path d="m124.4,21.63l-3.02,3.97c-2.33-2.54-5.93-4.08-9.48-4.08-3.92,0-6.73,2.07-6.73,4.98,0,8.95,20.28,3.87,20.28,17.27,0,5.88-4.98,10.96-12.92,10.96-5.61,0-10.96-2.54-14.19-5.88l3.23-3.81c2.86,2.7,6.36,4.77,10.96,4.77s7.68-2.44,7.68-5.98c0-8.63-20.18-3.39-20.18-16.95,0-5.88,5.14-10.27,12.23-10.27,4.66,0,9.75,2.12,12.13,5.03Z"/>
    <path d="m141.34,54.73c-7.57,0-13.4-5.83-13.4-13.4s5.83-13.51,13.4-13.51c4.98,0,9.22,2.49,11.02,6.3l-4.18,2.28c-1.06-2.38-3.71-3.92-6.83-3.92-4.93,0-8.63,3.87-8.63,8.84s3.71,8.74,8.63,8.74c3.34,0,6.14-1.54,7.47-4.18l4.29,1.96c-2.01,4.18-6.46,6.89-11.76,6.89Z"/>
    <path d="m156.23,28.35h4.93v4.03c1.17-2.7,4.13-4.55,6.78-4.55,1.27,0,2.44.26,3.18.58l-.53,4.77c-.9-.42-2.01-.64-3.07-.64-3.18,0-6.36,2.65-6.36,7.1v14.56h-4.93v-25.85Z"/>
    <path d="m170.69,41.17c0-7.52,5.83-13.35,13.19-13.35s12.34,5.4,12.34,12.34c0,.58-.05,1.64-.11,2.33h-20.6c.58,4.82,3.92,7.84,8.58,7.84,3.28,0,6.2-1.43,7.57-3.76l3.87,2.49c-1.96,3.5-6.3,5.67-11.55,5.67-7.36,0-13.29-5.83-13.29-13.56Zm20.55-2.7c-.42-3.6-3.5-6.3-7.57-6.3s-7.1,2.44-8,6.3h15.57Z"/>
    <path d="m199.13,41.17c0-7.52,5.83-13.35,13.19-13.35s12.34,5.4,12.34,12.34c0,.58-.05,1.64-.11,2.33h-20.6c.58,4.82,3.92,7.84,8.58,7.84,3.28,0,6.2-1.43,7.57-3.76l3.87,2.49c-1.96,3.5-6.3,5.67-11.55,5.67-7.36,0-13.29-5.83-13.29-13.56Zm20.55-2.7c-.42-3.6-3.5-6.3-7.57-6.3s-7.1,2.44-8,6.3h15.57Z"/>
    <path d="m232.28,33.01c1.64-3.28,4.61-5.19,8.37-5.19,6.62,0,10.8,4.45,10.8,11.6v14.78h-4.93v-14.25c0-4.5-2.75-7.47-6.99-7.47s-7.2,2.97-7.2,7.47h-.05v14.25h-4.87v-25.85h4.87v4.66Z"/>
    <path d="m267.4,54.73c-7.79,0-13.66-5.77-13.66-13.51s5.88-13.56,13.66-13.56c5.08,0,9.37,2.54,11.44,6.41l-6.3,3.6c-.95-1.75-2.86-2.86-5.14-2.86-3.71,0-6.36,2.75-6.36,6.41s2.65,6.36,6.36,6.36c2.54,0,4.61-1.22,5.61-3.28l6.62,2.97c-1.96,4.5-6.67,7.47-12.23,7.47Z"/>
    <path d="m308.12,54.2h-7.47v-3.71c-1.8,2.7-4.56,4.24-8.21,4.24-6.78,0-12.13-6.09-12.13-13.56s5.35-13.51,12.13-13.51c3.65,0,6.41,1.54,8.21,4.24v-3.71h7.47v26Zm-13.98-6.62c3.65,0,6.51-2.75,6.51-6.41s-2.86-6.41-6.51-6.41-6.51,2.86-6.51,6.41,2.91,6.41,6.51,6.41Z"/>
    <path d="m310.4,51.02l2.81-5.56c1.96,1.8,5.98,3.07,8.9,3.07,1.8,0,3.07-.79,3.07-1.85,0-3.39-13.66-.79-13.66-10.38,0-5.08,4.34-8.63,10.59-8.63,3.6,0,7.52.9,10.12,2.97l-2.75,5.77c-2.28-1.7-6.25-2.54-8.16-2.54-1.43,0-2.38.69-2.38,1.75,0,3.12,13.77,1.48,13.77,10.8,0,4.82-4.34,8.37-10.43,8.37-4.45,0-9.16-1.48-11.86-3.76Z"/>
    <path d="m338.36,44.03v-8.74h-4.82v-7.1h4.82v-6.83h7.47v6.83h6.41v7.1h-6.41v8.37c0,2.44,1.85,3.97,4.03,3.97.74,0,1.75-.16,2.33-.37l.37,6.62c-.95.48-2.44.74-3.81.74-6.09,0-10.38-3.87-10.38-10.59Z"/>
    <path d="m359.87,15.59c2.49,0,4.56,2.07,4.56,4.5s-2.07,4.55-4.56,4.55-4.55-2.07-4.55-4.55,2.07-4.5,4.55-4.5Zm3.76,12.61v26h-7.47v-26h7.47Z"/>
    <path d="m381.42,15.69c1.38,0,2.86.32,3.81.79l-.37,6.57c-.53-.16-1.59-.37-2.33-.37-2.17,0-4.03,1.59-4.03,3.97v1.54h6.41v7.1h-6.41v18.91h-7.47v-18.91h-4.82v-7.1h4.82v-1.91c0-6.73,4.29-10.59,10.38-10.59Z"/>
    <path d="m395.78,52.08l-10.01-23.89h8.05l5.77,15.2,5.77-15.2h8.05l-14.46,34.64h-8l4.82-10.75Z"/>
  </g>
</svg>